<mxfile host="app.diagrams.net" modified="2023-09-07T04:36:46.839Z" agent="Mozilla/5.0 (Windows NT 10.0; Win64; x64) AppleWebKit/537.36 (KHTML, like Gecko) Chrome/116.0.0.0 Safari/537.36 Edg/116.0.1938.69" version="21.7.2" etag="mTtDwQAt89eqLtuJVzbz" type="github">
  <diagram name="Trang-1" id="rX-trMRPahpPPgZ98m2N">
    <mxGraphModel>
      <root>
        <mxCell id="0" />
        <mxCell id="1" parent="0" />
      </root>
    </mxGraphModel>
  </diagram>
</mxfile>
